<svg width="12" height="12" viewBox="0 0 12 12" fill="none" xmlns="http://www.w3.org/2000/svg">
<g clip-path="url(#clip0_214_5833)">
<path d="M8.25 4.7L3.75 2.105" stroke="currentColor" stroke-linecap="round" stroke-linejoin="round"/>
<path d="M10.5 8V4C10.4998 3.82464 10.4535 3.6524 10.3658 3.50058C10.278 3.34876 10.1519 3.22268 10 3.135L6.5 1.135C6.34798 1.04723 6.17554 1.00103 6 1.00103C5.82446 1.00103 5.65202 1.04723 5.5 1.135L2 3.135C1.84813 3.22268 1.72199 3.34876 1.63423 3.50058C1.54647 3.6524 1.50018 3.82464 1.5 4V8C1.50018 8.17536 1.54647 8.34759 1.63423 8.49942C1.72199 8.65124 1.84813 8.77732 2 8.865L5.5 10.865C5.65202 10.9528 5.82446 10.999 6 10.999C6.17554 10.999 6.34798 10.9528 6.5 10.865L10 8.865C10.1519 8.77732 10.278 8.65124 10.3658 8.49942C10.4535 8.34759 10.4998 8.17536 10.5 8Z" stroke="currentColor" stroke-linecap="round" stroke-linejoin="round"/>
<path d="M1.635 3.48L6 6.005L10.365 3.48" stroke="currentColor" stroke-linecap="round" stroke-linejoin="round"/>
<path d="M6 11.04V6" stroke="currentColor" stroke-linecap="round" stroke-linejoin="round"/>
</g>
<defs>
<clipPath id="clip0_214_5833">
<rect width="10" height="12" fill="white" transform="translate(1)"/>
</clipPath>
</defs>
</svg>
